# xmcd
#
# Track frame offsets:
# 150
# 15126
# 34334
# 54513
# 70556
# 86921
# 116481
# 131812
# 149174
# 161193
# 176665
# 186716
# 209668
#
# Disc length: 3003 seconds
#
# Revision: 0
# Processed by: cddbd v1.5.2PL0 Copyright (c) Steve Scherf et al.
# Submitted via: Audion 3.0.2 (http://www.panic.com/audion/)
#
DISCID=c90bb90d
DTITLE=Wayne Sauls - Emotional
DYEAR=1900
DGENRE=
TTITLE0=Crazy 'Bout My Baby
TTITLE1=Trouble In Mind
TTITLE2=Big Legged Woman
TTITLE3=Don't Come Around Here
TTITLE4=The Road Is A Friend Of Mine
TTITLE5=It's Up To You
TTITLE6=Three Quarter Moon
TTITLE7=Half Ain't Been Told
TTITLE8=Special Kind Of Mambo
TTITLE9=Set Me Adrift
TTITLE10=Hand In The Pocket
TTITLE11=Movin' Down The Road
TTITLE12=One Too Many
EXTD=
EXTT0=
EXTT1=
EXTT2=
EXTT3=
EXTT4=
EXTT5=
EXTT6=
EXTT7=
EXTT8=
EXTT9=
EXTT10=
EXTT11=
EXTT12=
PLAYORDER=
